<svg xmlns="http://www.w3.org/2000/svg" viewBox="24 -819 951 931">
  <path fill="#000" transform="scale(1,-1)" d="M414 330Q420 334 423.0 343.5Q426 353 438.0 379.5Q450 406 450.0 412.5Q450 419 456.5 434.0Q463 449 463.0 462.5Q463 476 470.5 493.0Q478 510 485 510Q498 510 525.5 472.5Q553 435 553 417Q553 410 530.0 363.5Q507 317 495 300Q485 284 479 268Q473 257 474.5 253.0Q476 249 485 239Q498 226 511.0 219.5Q524 213 544 197Q563 182 612.0 159.0Q661 136 699.0 124.0Q737 112 774.0 94.0Q811 76 817.0 76.0Q823 76 839.5 67.5Q856 59 869 59Q891 58 914.0 40.5Q937 23 935 8Q934 0 931.5 -1.5Q929 -3 920 -2Q905 -1 900.5 -5.0Q896 -9 877.5 -14.0Q859 -19 835 -43Q814 -64 802.5 -69.0Q791 -74 776 -70Q758 -66 722.5 -49.5Q687 -33 675 -24Q640 4 578 46Q505 94 446 148Q429 164 424.0 165.0Q419 166 411 158Q405 151 395 143L355 109Q330 88 287.5 60.0Q245 32 218 19Q195 7 178 -6Q142 -30 98 -32Q78 -32 71.0 -30.0Q64 -28 64 -18Q64 -10 82.0 -1.0Q100 8 102.5 11.5Q105 15 153 43Q222 84 279 142Q305 170 334.5 205.0Q364 240 364 244Q364 247 356 255Q338 274 316 319Q289 375 283.0 392.5Q277 410 283 420Q288 428 296.5 428.0Q305 428 341 398Q346 395 371 366Q399 334 404.5 329.5Q410 325 414 330ZM334 735Q326 752 329.0 756.5Q332 761 338.5 771.0Q345 781 360.0 778.0Q375 775 390.0 764.5Q405 754 411.0 754.0Q417 754 444 746Q463 739 467.5 735.5Q472 732 476 723Q479 710 477.5 690.5Q476 671 476.0 650.0Q476 629 463.5 606.5Q451 584 454 581Q460 579 519.5 583.5Q579 588 603 593Q664 605 708.0 602.0Q752 599 766 583Q776 570 771.5 546.5Q767 523 752 511Q737 499 714 512Q702 518 674.0 527.0Q646 536 571 535Q500 535 458.5 530.0Q417 525 367 510Q341 501 324 499Q282 493 248.5 482.0Q215 471 207 461Q189 440 153 461Q138 469 129.5 482.5Q121 496 127 501Q130 505 155.5 513.5Q181 522 189 522Q197 522 204.0 526.0Q211 530 265.5 544.0Q320 558 354 564Q388 570 389.5 571.5Q391 573 382 591Q374 608 365.0 635.5Q356 663 356 672Q356 688 334 735Z"/>
</svg>
